<svg width="32" height="32" viewBox="0 0 32 32" fill="none" xmlns="http://www.w3.org/2000/svg">
<rect width="32" height="32" rx="16" fill="#1A3A5C"/>
<path d="M16.8837 7.87502C16.6493 7.64068 16.3315 7.50903 16 7.50903C15.6685 7.50903 15.3507 7.64068 15.1162 7.87502L6.8075 16.1825C6.74939 16.2406 6.70329 16.3096 6.67184 16.3855C6.64039 16.4615 6.62421 16.5428 6.62421 16.625C6.62421 16.7072 6.64039 16.7886 6.67184 16.8645C6.70329 16.9404 6.74939 17.0094 6.8075 17.0675C6.92485 17.1849 7.08403 17.2508 7.25 17.2508C7.33218 17.2508 7.41355 17.2346 7.48948 17.2032C7.5654 17.1717 7.63439 17.1256 7.6925 17.0675L16 8.75877L24.3075 17.0675C24.4249 17.1849 24.584 17.2508 24.75 17.2508C24.916 17.2508 25.0751 17.1849 25.1925 17.0675C25.3099 16.9502 25.3758 16.791 25.3758 16.625C25.3758 16.459 25.3099 16.2999 25.1925 16.1825L22.25 13.2413V9.12502C22.25 8.95926 22.1841 8.80028 22.0669 8.68307C21.9497 8.56586 21.7908 8.50002 21.625 8.50002H20.375C20.2092 8.50002 20.0503 8.56586 19.9331 8.68307C19.8158 8.80028 19.75 8.95926 19.75 9.12502V10.7413L16.8837 7.87502Z" fill="white"/>
<path d="M16 10.1163L23.5 17.6163V22.875C23.5 23.3723 23.3025 23.8492 22.9508 24.2008C22.5992 24.5525 22.1223 24.75 21.625 24.75H10.375C9.87772 24.75 9.40081 24.5525 9.04917 24.2008C8.69754 23.8492 8.5 23.3723 8.5 22.875V17.6163L16 10.1163Z" fill="white"/>
</svg>
